<svg width="130" height="130" viewBox="0 0 130 130" fill="none" xmlns="http://www.w3.org/2000/svg">
<rect width="130" height="130" rx="65" fill="#4CAF50" fill-opacity="0.2"/>
<g clip-path="url(#clip0_1727_9342)">
<rect x="15" y="15" width="100" height="100" rx="50" fill="#4CAF50" fill-opacity="0.5"/>
<g filter="url(#filter2_d_1727_9342)">
<path d="M89.7491 40.2509C83.4159 33.9178 74.6644 30 65 30C55.3356 30 46.5841 33.9178 40.2509 40.2509C33.9178 46.5841 30 55.3341 30 65C30 74.6644 33.9178 83.4159 40.2509 89.7491C46.5841 96.0822 55.3341 100 65 100C74.6659 100 83.4159 96.0822 89.7491 89.7491C96.0822 83.4159 100 74.6659 100 65C100 55.3356 96.0822 46.5841 89.7491 40.2509Z" fill="#4CAF50"/>
</g>
<path d="M71.2361 61.6943C71.9102 61.0202 73.0034 61.0202 73.6775 61.6943C74.3512 62.3683 74.3511 63.4607 73.6775 64.1348L65.1707 72.6416C64.8469 72.9653 64.4078 73.1475 63.95 73.1475C63.4922 73.1474 63.0529 72.9653 62.7292 72.6416L57.8689 67.7812C57.1948 67.1071 57.1948 66.014 57.8689 65.3398C58.543 64.6659 59.6352 64.6659 60.3093 65.3398L63.8816 68.9121C63.8997 68.9301 63.9244 68.9404 63.95 68.9404C63.9755 68.9404 64.0002 68.9301 64.0183 68.9121L71.2361 61.6943Z" fill="url(#paint0_linear_1727_9342)" fill-opacity="0.9" stroke="url(#paint1_linear_1727_9342)" stroke-width="0.193334" stroke-linecap="round" stroke-linejoin="round"/>
</g>
<defs>
<filter id="filter2_d_1727_9342" x="-2.94118" y="8.82352" width="140.588" height="140.588" filterUnits="userSpaceOnUse" color-interpolation-filters="sRGB">
<feFlood flood-opacity="0" result="BackgroundImageFix"/>
<feColorMatrix in="SourceAlpha" type="matrix" values="0 0 0 0 0 0 0 0 0 0 0 0 0 0 0 0 0 0 127 0" result="hardAlpha"/>
<feOffset dx="2.35294" dy="14.1176"/>
<feGaussianBlur stdDeviation="17.6471"/>
<feComposite in2="hardAlpha" operator="out"/>
<feColorMatrix type="matrix" values="0 0 0 0 0 0 0 0 0 0 0 0 0 0 0 0 0 0 0.1 0"/>
<feBlend mode="normal" in2="BackgroundImageFix" result="effect1_dropShadow_1727_9342"/>
<feBlend mode="normal" in="SourceGraphic" in2="effect1_dropShadow_1727_9342" result="shape"/>
</filter>
<linearGradient id="paint0_linear_1727_9342" x1="59.925" y1="65.7251" x2="86.5084" y2="68.8668" gradientUnits="userSpaceOnUse">
<stop stop-color="white"/>
<stop offset="1" stop-color="white" stop-opacity="0"/>
</linearGradient>
<linearGradient id="paint1_linear_1727_9342" x1="57.75" y1="62.8251" x2="68.6251" y2="66.4501" gradientUnits="userSpaceOnUse">
<stop stop-color="white"/>
<stop offset="1" stop-color="white" stop-opacity="0"/>
</linearGradient>
<clipPath id="clip0_1727_9342">
<rect x="15" y="15" width="100" height="100" rx="50" fill="white"/>
</clipPath>
</defs>
</svg>
